<svg width="172" height="46" viewBox="0 0 172 46" fill="none" xmlns="http://www.w3.org/2000/svg">
<path d="M49.7092 7.0982V0.89737H47.3105V0.273788H52.8291V0.89737H50.4305V7.0982H49.7092Z" fill="#29474C"/>
<path d="M50.6513 7.3184H49.4885V1.11756H47.0898V0.0514984H53.0499V1.11756H50.6513V7.3184ZM49.9299 6.87695H50.2098V0.67611H52.6084V0.493979H47.5323V0.67611H49.9309V6.87695H49.9299Z" fill="#29474C"/>
<path d="M57.3926 7.09819V0.273773H59.9466C60.5249 0.273773 61.0219 0.366386 61.4387 0.551608C61.8544 0.73683 62.1744 1.00334 62.3987 1.35115C62.6231 1.69895 62.7352 2.11982 62.7352 2.61375C62.7352 3.10767 62.6231 3.50899 62.3987 3.8568C62.1744 4.2046 61.8544 4.47111 61.4387 4.65634C61.0229 4.84156 60.5249 4.93417 59.9466 4.93417H57.7918L58.1139 4.60283V7.09922H57.3926V7.09819ZM58.1139 4.66046L57.7918 4.31882H59.927C60.6093 4.31882 61.1279 4.16962 61.4819 3.87018C61.8359 3.57176 62.0129 3.15192 62.0129 2.61272C62.0129 2.07352 61.8359 1.64442 61.4819 1.34497C61.1279 1.04656 60.6093 0.896325 59.927 0.896325H57.7918L58.1139 0.554692V4.65943V4.66046ZM62.053 7.09819L60.2985 4.62135H61.0785L62.8433 7.09819H62.054H62.053Z" fill="#29474C"/>
<path d="M63.2719 7.31838H61.9393L60.3917 5.13481C60.2486 5.14716 60.1004 5.15436 59.9471 5.15436H58.3347V7.31838H57.1719V0.0525112H58.2853L58.3347 3.05176e-05V0.0525112H59.9471C60.5542 0.0525112 61.0862 0.152327 61.5287 0.349897C61.9825 0.551584 62.3375 0.84897 62.5845 1.23176C62.8314 1.61456 62.956 2.07967 62.956 2.61373C62.956 3.14778 62.8304 3.59437 62.5845 3.97614C62.3375 4.35893 61.9825 4.65529 61.5287 4.858C61.5256 4.85903 61.5225 4.86109 61.5205 4.86212L63.2719 7.3194V7.31838ZM62.1677 6.87693H62.4147L61.0873 5.01339C61.0204 5.03191 60.9525 5.04837 60.8825 5.06278L62.1677 6.87693ZM57.6143 6.87693H57.8942V5.15436H57.6143V6.87693ZM57.6143 4.45154V4.80141L57.781 4.62957L57.6143 4.45257V4.45154ZM58.3357 4.71292H59.9482C59.9965 4.71292 60.0449 4.71291 60.0922 4.71086L59.9708 4.54004C59.9564 4.54004 59.943 4.54004 59.9286 4.54004H58.3357V4.71292ZM60.9494 4.40112H61.1922L61.2581 4.49271C61.289 4.48036 61.3198 4.46698 61.3497 4.4536C61.7242 4.2869 62.0144 4.04611 62.214 3.73638C62.4137 3.42664 62.5155 3.049 62.5155 2.6127C62.5155 2.17639 62.4147 1.78023 62.214 1.46946C62.0144 1.15973 61.7232 0.918939 61.3497 0.752239C60.9638 0.580394 60.4925 0.492932 59.9482 0.492932H58.3357V0.675063H59.9286C60.6613 0.675063 61.2324 0.843827 61.6265 1.1762C62.0309 1.51783 62.2367 2.00146 62.2367 2.6127C62.2367 3.22393 62.0319 3.6983 61.6265 4.03891C61.4402 4.19635 61.2138 4.31674 60.9504 4.40009L60.9494 4.40112ZM58.3357 4.09859H59.9286C60.5542 4.09859 61.0296 3.96482 61.3414 3.70242C61.646 3.44517 61.7942 3.08913 61.7942 2.61373C61.7942 2.13832 61.646 1.77199 61.3414 1.51474C61.0296 1.25131 60.5542 1.11857 59.9286 1.11857H58.3357V4.09859ZM57.6143 4.09859H57.8942V1.11857H57.6143V4.09859ZM57.6143 0.493962V0.764593L57.8695 0.493962H57.6143Z" fill="#29474C"/>
<path d="M66.7578 7.09825L69.8778 0.273834H70.5899L73.7098 7.09825H72.9494L70.0836 0.692643H70.3758L67.509 7.09825H66.7588H66.7578ZM67.9865 5.27484L68.2005 4.68933H72.1684L72.3824 5.27484H67.9854H67.9865Z" fill="#29474C"/>
<path d="M74.0554 7.31839H72.8082L71.9922 5.49497H68.4699L67.6539 7.31839H66.416L69.7377 0.0525208H70.7327L74.0544 7.31839H74.0554ZM73.0943 6.87694H73.368L72.5623 5.11527L72.7012 5.49497H72.4748L73.0933 6.87591L73.0943 6.87694ZM67.1044 6.87694H67.3679L67.9863 5.496H67.7362L67.1044 6.87694ZM68.6675 5.05353H71.7947L71.7309 4.91049H68.7323L68.6685 5.05353H68.6675ZM72.0169 4.46802H72.267L70.5804 0.779004L70.4734 1.01877L72.0169 4.46802ZM68.9299 4.46802H71.5333L70.2316 1.559L68.9299 4.46802ZM68.2055 4.46802H68.4463L69.9898 1.01877L69.8869 0.789298L68.2055 4.46802Z" fill="#29474C"/>
<path d="M79.8445 7.09825L76.8223 0.273834H77.6023L80.43 6.69899H80.0009L82.8482 0.273834H83.5798L80.5576 7.09825H79.8455H79.8445Z" fill="#29474C"/>
<path d="M80.7013 7.31845H79.7021L76.4844 0.0525818H77.748L80.2187 5.66585L82.7058 0.0525818H83.92L80.7023 7.31845H80.7013ZM77.1625 0.494032L79.8348 6.52919L79.9748 6.21226L77.4588 0.494032H77.1625ZM80.4584 6.21226L80.5829 6.49524L83.2409 0.494032H82.9929L80.4595 6.21226H80.4584Z" fill="#29474C"/>
<path d="M88.694 6.47365H92.7987V7.09723H87.9727V0.272812H92.6526V0.896394H88.694V6.47365ZM88.6158 3.32486H92.2235V3.93919H88.6158V3.32486Z" fill="#29474C"/>
<path d="M93.0195 7.31846H87.752V0.052597H92.8733V1.11866H88.9147V3.10465H92.4443V4.16042H88.9147V6.25343H93.0195V7.31949V7.31846ZM88.1934 6.87701H92.578V6.69488H88.4733V4.16042H88.3951V3.10465H88.4733V0.677209H92.4319V0.495071H88.1934V6.87804V6.87701ZM88.9147 3.71794H92.0028V3.54507H88.9147V3.71794Z" fill="#29474C"/>
<path d="M97.9102 7.09825V0.273834H98.6315V6.47467H102.453V7.09825H97.9102Z" fill="#29474C"/>
<path d="M102.674 7.31845H97.6895V0.0525818H98.8522V6.25342H102.674V7.31947V7.31845ZM98.1309 6.877H102.233V6.69486H98.4108V0.494032H98.1309V6.877Z" fill="#29474C"/>
<path d="M113.033 7.09825V0.273834H113.755V7.09825H113.033Z" fill="#29474C"/>
<path d="M113.975 7.31845H112.812V0.0525818H113.975V7.31845ZM113.254 6.877H113.534V0.494032H113.254V6.877Z" fill="#29474C"/>
<path d="M119.389 7.09831V0.273895H119.983L124.692 6.20204H124.38V0.273895H125.092V7.09831H124.498L119.798 1.17017H120.11V7.09831H119.389Z" fill="#29474C"/>
<path d="M125.312 7.31851H124.39L120.331 2.19711V7.31851H119.168V0.0526428H120.09L124.16 5.1761V0.0526428H125.313V7.31851H125.312ZM124.603 6.87706H124.871V6.42224H124.243L124.604 6.87706H124.603ZM119.608 6.87706H119.888V1.64041L119.608 1.28746V6.87706ZM120.33 1.48709L124.159 6.31625V5.88509L120.33 1.06519V1.48606V1.48709ZM124.6 5.73177L124.87 6.07134V0.494093H124.6V5.73177ZM119.608 0.949946H120.237L119.875 0.494093H119.607V0.949946H119.608Z" fill="#29474C"/>
<path d="M130.857 3.93917H171.999C158.285 3.92476 144.571 3.91653 130.857 3.91241V3.93917Z" fill="#29474C"/>
<path d="M41.3037 3.93401C28.477 3.89696 15.674 3.89799 2.92969 3.93812H41.3037V3.93401Z" fill="#29474C"/>
<path d="M41.3036 3.45348H2.92969V4.42589H41.3036V3.45348Z" fill="#29474C"/>
<path d="M171.999 3.45349H130.857V4.42591H171.999V3.45349Z" fill="#29474C"/>
<path d="M77.392 34.1284C77.3292 34.4608 77.2345 34.7983 77.0956 35.1348C76.2899 37.0858 74.2113 38.2507 72.4898 38.547C68.9819 39.15 66.2889 36.2266 66.0492 35.958C64.0642 33.7343 63.9664 30.9478 63.8152 26.6763C63.7308 24.287 63.9448 22.2896 64.1661 20.2357C64.4172 17.8958 64.7536 15.9509 65.0294 14.5535H57.9766V36.0527C57.9766 39.0821 58.7843 41.3285 60.3855 42.7186C61.9527 44.0811 64.4717 44.7736 67.8685 44.7736H73.847V44.7787H80.5963C81.2034 44.7787 81.6963 44.29 81.6994 43.6828C81.7046 42.5437 81.7087 41.4025 81.7097 40.2572C81.7128 38.2044 81.7077 36.1628 81.6974 34.1284H77.393H77.392Z" fill="#9CC33F"/>
<path d="M70.7998 23.6659C71.2733 23.0774 71.1851 22.2206 70.6028 21.7521C70.0206 21.2836 69.1647 21.3809 68.6913 21.9693C68.2178 22.5578 68.306 23.4146 68.8883 23.8831C69.4705 24.3516 70.3263 24.2543 70.7998 23.6659Z" fill="#9CC33F"/>
<path d="M65.0288 14.5534C66.2914 14.5493 67.553 14.5452 68.8156 14.54C67.7753 15.5207 65.9951 17.4614 64.8519 20.4558C63.8681 23.0335 63.7693 25.3086 63.8146 26.6762C63.794 24.1551 63.7735 21.6351 63.7539 19.114L65.0288 14.5534Z" fill="#9CC33F"/>
<path d="M74.2924 17.1208C73.1111 19.4721 73.3272 22.0426 74.7616 23.4914C75.769 24.5091 77.8034 25.4013 79.2141 24.5904C79.6628 24.3332 79.9519 23.9586 80.1382 23.6355C79.6762 23.758 78.1481 24.1016 76.5572 23.3217C75.6002 22.8535 75.0672 22.1969 74.9314 22.023C73.3971 20.0556 74.1936 17.4295 74.2924 17.1198V17.1208Z" fill="#9CC33F"/>
<path d="M73.0899 30.4856C72.8337 30.7131 72.7112 31.1432 72.7236 31.492C72.7267 31.5815 72.7473 32.1619 73.1198 32.3759C73.4789 32.5828 73.7598 32.2164 74.2476 32.3451C74.7435 32.4758 75.2714 33.0705 75.1624 33.6869C75.0636 34.2436 74.4997 34.5091 74.4307 34.541C74.0912 34.6346 72.8996 34.9186 71.8695 34.2662C70.4608 33.3741 70.2859 31.3233 70.8312 29.966C71.3241 28.7404 72.3768 28.1488 72.631 28.015C74.9421 26.7956 78.3852 27.9409 80.1973 30.1769C81.3889 31.6484 81.6359 33.2928 81.6966 34.1263C81.0823 34.1654 80.4371 34.1901 79.761 34.1942C78.9265 34.1994 78.1341 34.1736 77.3912 34.1263C77.4509 33.6869 77.489 32.8853 77.0671 32.1002C76.1965 30.4784 73.8401 29.8147 73.0879 30.4836L73.0899 30.4856Z" fill="#9CC33F"/>
<path d="M14.6964 26.527L10.108 26.0454C9.24877 25.9302 8.5264 25.6348 7.96045 25.1708C7.45726 24.7581 7.21235 24.1994 7.21235 23.4616C7.21235 22.7238 7.5756 22.1105 8.32163 21.5476C9.12117 20.9456 10.2747 20.64 11.7513 20.64C14.1067 20.64 15.3858 21.5733 15.7779 23.5778L15.8972 24.186L22.2112 23.8814V23.1981C22.2112 20.5875 21.1997 18.4225 19.2034 16.7648C17.2463 15.1389 14.6511 14.3157 11.4889 14.3157C8.32677 14.3157 5.66472 15.1862 3.57479 16.9047C1.44268 18.6561 0.362213 20.9106 0.362213 23.6036C0.362213 26.2965 1.12986 28.3658 2.64456 29.8209C4.12223 31.2409 6.13086 32.1485 8.6468 32.5231L13.3021 33.0036C15.8365 33.3926 16.1298 34.7468 16.1298 35.7315C16.1298 36.9509 15.6801 38.5726 11.7935 38.5726C10.4332 38.5726 9.17674 38.2032 8.06129 37.4757C7.02816 36.8027 6.52703 35.8879 6.52703 34.6799V33.9277L0 34.2384V34.9217C0 36.6834 0.399258 38.2794 1.18542 39.6624C1.96953 41.0423 2.99134 42.1279 4.23439 42.8976C6.62479 44.3042 9.14072 45.0184 11.7133 45.0184C14.9608 45.0184 17.6805 44.1849 19.7941 42.5426C21.9633 40.857 23.0633 38.5109 23.0633 35.5689C23.0633 30.3261 20.2572 27.2844 14.6995 26.528L14.6964 26.527Z" fill="#036F9A"/>
<path d="M37.4225 19.9341C36.9491 19.9341 36.5591 19.9485 36.2617 19.9773L36.1557 19.9876L32.6571 21.4324C31.733 21.8141 30.668 21.4622 30.1535 20.605C30.0238 20.3889 29.7903 20.2572 29.5392 20.2572H25.6176C25.2214 20.2572 24.9004 20.5783 24.9004 20.9744V44.0583C24.9004 44.4545 25.2214 44.7755 25.6176 44.7755H30.8728C31.269 44.7755 31.59 44.4545 31.59 44.0583V28.5655C31.59 28.3031 31.7341 28.0571 31.9656 27.9337C33.4937 27.1166 34.7964 26.704 35.846 26.704C36.2648 26.704 36.6373 26.7688 36.9543 26.8954C37.3494 27.0539 37.796 26.8347 37.9112 26.4241L39.5031 20.7635L39.0925 20.4713C38.5924 20.1152 38.0306 19.9341 37.4235 19.9341H37.4225Z" fill="#20A7A0"/>
<path d="M48.1642 21.1062H41.4746V44.7745H48.1642V21.1062Z" fill="#3F7538"/>
<path d="M44.8621 11.4438C43.3639 11.4438 42.4131 11.6969 41.8687 12.2402C41.3254 12.7835 41.0723 13.722 41.0723 15.1935C41.0723 16.665 41.3223 17.6024 41.8595 18.157C42.4038 18.7199 43.3505 18.9823 44.8415 18.9823C46.3326 18.9823 47.271 18.7292 47.8144 18.1859C48.3577 17.6436 48.6108 16.6989 48.6108 15.213C48.6108 13.7271 48.3669 12.7918 47.8432 12.2484C47.3122 11.7 46.3645 11.4438 44.8621 11.4438Z" fill="#3F7538"/>
<path d="M95.3325 20.3364C95.0382 20.3364 94.7686 20.2983 94.5175 20.2356H93.0501C90.9715 20.2356 89.2438 20.6997 87.9092 21.6186C87.2887 22.0518 86.7577 22.6373 86.3307 23.3545C85.9304 24.0244 85.6165 24.6891 85.3973 25.3302C85.1792 25.9713 85.0115 26.7605 84.8993 27.6764C84.7892 28.5747 84.7192 29.3691 84.6935 30.039C84.6657 30.7119 84.6523 31.7266 84.6523 33.1414C84.6523 34.5563 84.7573 35.9414 84.9641 37.2565C85.1771 38.6024 85.5723 39.8743 86.1372 41.0299C87.3391 43.554 89.6791 44.8341 93.0913 44.8341H93.2724L95.849 43.4429C97.2917 42.6639 99.0914 43.1733 99.9136 44.5913H104.561V20.3364H95.3314H95.3325ZM97.8731 36.0793L94.4177 37.8595C93.2353 37.8307 92.4667 37.4942 92.0684 36.8335C91.7371 36.2841 91.343 35.0791 91.343 32.453C91.343 30.3261 91.6095 28.729 92.1343 27.7052C92.5901 26.813 93.3701 26.3983 94.5885 26.3983H97.8741V36.0793H97.8731Z" fill="#E4A624"/>
<path d="M124.84 22.2257C123.373 20.7584 121.618 20.0144 119.623 20.0144H119.466L116.006 21.6145C114.638 22.2473 113.018 21.6351 112.41 20.2572H107.865C107.693 20.3354 107.504 20.3972 107.305 20.4414V44.7745H113.994V28.3237L118.146 26.5846C118.861 26.6052 119.414 26.7873 119.791 27.1259C120.164 27.4624 120.363 28.2156 120.363 29.3023V44.7745H127.052V28.5737C127.052 25.8283 126.308 23.6921 124.841 22.2257H124.84Z" fill="#EC7023"/>
<path d="M151.473 21.1864H143.737L137.479 30.5062V12.9399H130.789V44.7745H137.479V39.3928L139.082 37.1145L144.769 44.7745H152.878L143.396 32.2452L151.473 21.1864Z" fill="#BE3627"/>
<path d="M166.517 20.0679L165.623 20.1235H160.083C158.005 20.1235 156.277 20.5876 154.942 21.5065C154.322 21.9397 153.791 22.5252 153.364 23.2425C152.964 23.9134 152.65 24.5781 152.432 25.2182C152.213 25.8572 152.047 26.6464 151.934 27.5643C151.822 28.4596 151.753 29.255 151.727 29.9269C151.699 30.5927 151.686 31.6073 151.686 33.0294C151.686 34.4515 151.791 35.8314 151.997 37.1434C152.21 38.4893 152.605 39.7612 153.17 40.9178C154.371 43.442 156.711 44.7221 160.124 44.7221H160.306L162.882 43.3308C164.325 42.5529 166.126 43.0613 166.948 44.4792H171.595V20.0679H166.517ZM166.067 35.2428C166.079 35.4116 166.035 35.5865 166.022 35.7573C166.016 35.8489 165.928 36.3799 165.864 36.3768C165.789 36.528 165.698 36.7019 165.631 36.8573C165.634 36.8542 165.637 36.8532 165.642 36.8573C165.6 36.9664 165.599 37.0528 165.535 37.1485C165.478 37.234 165.429 37.3276 165.367 37.412C165.25 37.5715 165.094 37.7001 164.957 37.839C164.876 37.9193 164.803 37.947 164.71 37.9995C164.599 38.0613 164.521 38.1662 164.437 38.2578C164.353 38.3494 164.209 38.477 164.1 38.5346C164.04 38.5655 163.964 38.5593 163.906 38.5871C163.852 38.6139 163.818 38.6632 163.762 38.6879C163.683 38.7229 163.598 38.7044 163.521 38.7384C163.446 38.7723 163.381 38.8608 163.3 38.8804C163.222 38.8989 163.174 38.8598 163.099 38.8968C163.024 38.9339 163.021 39.0018 162.915 38.9575C162.761 39.0759 162.562 39.0563 162.396 39.1325C162.294 39.1788 162.227 39.2169 162.116 39.2374C162.024 39.2539 161.893 39.259 161.81 39.3002C161.711 39.3486 161.701 39.4206 161.587 39.47C161.462 39.5225 161.376 39.6367 161.258 39.6634C161.221 39.6727 161.171 39.6532 161.127 39.6634C161.046 39.683 160.993 39.7489 160.922 39.7838C160.855 39.8178 160.766 39.8312 160.682 39.8054C160.609 39.7828 160.56 39.7396 160.479 39.7272C160.434 39.72 160.36 39.7344 160.32 39.717C160.274 39.6974 160.28 39.6562 160.245 39.6357C160.112 39.5564 159.897 39.6295 159.739 39.5492C159.655 39.506 159.611 39.4782 159.518 39.4618C159.428 39.4463 159.426 39.4381 159.365 39.3815C159.302 39.3218 159.278 39.3239 159.193 39.2807C159.121 39.2426 159.094 39.1911 159.039 39.1294C158.91 38.9884 158.7 38.868 158.64 38.6746C158.61 38.5778 158.674 38.5058 158.63 38.4173C158.613 38.3803 158.567 38.3731 158.551 38.334C158.517 38.2444 158.569 38.2341 158.607 38.1745C158.592 38.1878 158.559 38.2064 158.569 38.1889C158.555 38.0839 158.524 37.9666 158.49 37.8637C158.459 37.7639 158.384 37.6836 158.367 37.5787C158.345 37.4521 158.34 37.3492 158.306 37.2267C158.266 37.0847 158.184 36.9479 158.145 36.8028C158.097 36.6289 158.012 36.4766 157.958 36.3068C157.907 36.1411 157.942 35.9209 157.834 35.7625C157.803 35.7172 157.701 35.6863 157.686 35.641C157.664 35.5731 157.773 35.4949 157.811 35.4394C157.909 35.2994 157.876 35.1759 157.84 35.0236C157.809 34.8971 157.74 34.8312 157.691 34.719C157.632 34.5822 157.753 34.5513 157.811 34.434C157.882 34.293 157.875 33.8958 157.741 33.797C157.712 33.6108 157.604 33.3865 157.586 33.1765C157.578 33.0716 157.614 32.9749 157.629 32.874C157.648 32.7567 157.63 32.6188 157.619 32.5036C157.586 32.1599 157.518 31.8481 157.435 31.5126C157.395 31.3531 157.294 31.2492 157.239 31.0979C157.185 30.9498 157.255 30.8366 157.261 30.6905C157.265 30.6164 157.216 30.5526 157.228 30.4723C157.238 30.4034 157.278 30.356 157.308 30.2912C157.382 30.1296 157.505 29.9743 157.594 29.8117C157.666 29.9413 157.452 30.2809 157.434 30.4229C157.422 30.5155 157.407 30.5917 157.383 30.6791C157.37 30.7306 157.356 30.7388 157.37 30.7851C157.386 30.8397 157.464 30.8695 157.475 30.9251C157.489 31.0053 157.409 31.0928 157.417 31.171C157.425 31.2533 157.538 31.3531 157.627 31.3614C157.692 31.3675 157.758 31.3079 157.773 31.2471C157.804 31.1185 157.655 31.063 157.652 30.959C157.65 30.9024 157.718 30.8695 157.741 30.8252C157.774 30.7645 157.77 30.71 157.764 30.6493C157.752 30.5196 157.74 30.4239 157.621 30.3653C157.615 30.2943 157.732 30.2428 157.742 30.143C157.756 30.0185 157.74 29.9876 157.841 29.8858C157.731 29.7273 157.794 29.5822 157.841 29.4279C157.882 29.2992 157.839 29.2015 157.906 29.1017C157.963 29.0152 158.088 29.0296 158.132 28.9144C158.232 28.6509 158.268 28.405 158.209 28.1169C158.173 27.9358 158.141 27.7855 158.131 27.5983C158.122 27.4048 158.037 27.2638 157.891 27.1434C157.772 27.0457 157.627 26.9181 157.473 26.8893C157.382 26.8728 157.106 26.9665 157.222 26.7853C157.326 26.6238 157.63 26.6464 157.779 26.703C157.879 26.7411 157.995 26.7874 158.076 26.8605C158.164 26.9407 158.134 26.9634 158.078 27.0457C158.214 27.1527 158.221 27.3029 158.422 27.1908C158.495 27.1506 158.581 27.1352 158.632 27.0796C158.686 27.021 158.723 26.8759 158.738 26.7997C158.779 26.5919 158.869 26.4015 158.903 26.1875C158.915 26.1124 158.949 26.0218 158.914 25.9529C158.879 25.8839 158.782 25.8541 158.726 25.8047C158.474 25.5793 158.839 25.5783 158.858 25.4394C158.977 25.4672 159.213 25.2007 159.183 25.0751C159.135 24.8704 158.854 24.8292 158.725 24.7109V24.6707C158.816 24.6532 158.937 24.786 159.014 24.8251C159.117 24.8776 159.225 24.8899 159.317 24.9506C159.415 25.0165 159.44 25.1461 159.531 25.2017C159.636 25.2665 159.803 25.1883 159.905 25.1719C159.98 25.1595 160.032 25.1173 160.104 25.1039C160.17 25.0916 160.257 25.1255 160.322 25.1379C160.464 25.1667 160.573 25.2284 160.702 25.283C160.8 25.3241 161.001 25.3231 160.85 25.2017C160.764 25.1317 160.595 25.036 160.49 25.001C160.309 24.9414 160.156 25.0556 159.974 24.9949C159.903 24.9712 159.844 24.8889 159.774 24.8508C159.674 24.7963 159.59 24.7664 159.506 24.6913C159.413 24.6069 159.328 24.468 159.195 24.4577C159.113 24.5884 159.242 24.5977 159.259 24.7139C159.075 24.7921 158.928 24.4773 158.781 24.4485C158.795 24.4999 158.828 24.5544 158.845 24.5997C158.762 24.5781 158.69 24.5267 158.613 24.4896C158.521 24.4454 158.486 24.4022 158.409 24.3445C158.325 24.2818 158.228 24.2756 158.152 24.1963C158.126 24.1717 158.108 24.0832 158.055 24.0965C158.007 24.1089 158.019 24.1634 158.041 24.1963C157.927 24.2632 158.123 24.3188 158.122 24.4094C158.205 24.3939 158.161 24.4588 158.198 24.4773C158.231 24.4927 158.265 24.4824 158.306 24.4948C158.373 24.5153 158.347 24.4999 158.403 24.5431C158.42 24.5575 158.456 24.5761 158.474 24.5833C158.463 24.6213 158.435 24.6532 158.4 24.6697C158.389 24.644 158.375 24.6471 158.376 24.6121C158.305 24.5791 158.229 24.6121 158.156 24.5575C158.081 24.6903 157.992 24.4989 157.912 24.5925C157.981 24.752 157.72 24.929 157.665 24.753C157.623 24.6193 157.759 24.6543 157.809 24.6234C157.856 24.5956 157.873 24.5349 157.933 24.5123C157.912 24.4762 157.736 24.254 157.884 24.2838C157.887 24.1994 157.806 24.149 157.886 24.076C157.932 24.0338 157.965 24.0688 158.009 24.0379C158.048 24.0111 158.067 23.9494 158.109 23.9195C158.184 23.866 158.244 23.8959 158.322 23.8691C158.413 23.8372 158.442 23.7734 158.554 23.7714C158.708 23.7683 158.834 23.8136 158.984 23.7714C159.118 23.7323 159.244 23.7251 159.381 23.7384C159.594 23.759 159.576 23.899 159.653 24.0708C159.694 24.1614 159.74 24.2622 159.784 24.3507C159.85 24.4793 159.964 24.4948 160.092 24.5565C160.247 24.6316 160.316 24.7952 160.451 24.8642C160.538 24.9084 160.612 24.9146 160.69 24.9805C160.756 25.0371 160.817 25.0936 160.883 25.1492C161.085 25.319 161.408 25.4507 161.472 25.7183C161.609 25.8592 161.731 26.0023 161.86 26.1494C161.855 26.1443 161.849 26.1412 161.843 26.1391C161.902 26.2142 161.91 26.2873 161.93 26.3727C161.945 26.4293 162.017 26.6114 161.889 26.525C161.885 26.5291 161.881 26.5332 161.876 26.5374C161.916 26.5878 161.991 26.561 162.043 26.6073C162.079 26.6392 162.1 26.703 162.124 26.7442C162.159 26.807 162.293 27.022 162.133 27.0272C162.109 27.1023 162.198 27.1537 162.21 27.2268C162.23 27.34 162.188 27.3781 162.33 27.4151C162.44 27.2998 162.205 27.1846 162.279 27.0416C162.282 27.0416 162.285 27.0416 162.289 27.0426C162.339 27.1043 162.368 27.1764 162.42 27.2381C162.472 27.2988 162.53 27.3544 162.574 27.4223C162.647 27.5406 162.816 27.6898 162.884 27.7928C162.906 27.8257 162.948 27.9461 162.981 28.0088C163.031 28.1066 163.111 28.1436 163.181 28.2249C163.247 28.3031 163.279 28.3916 163.34 28.4688C163.418 28.5676 163.415 28.617 163.428 28.7394C163.435 28.8063 163.543 29.006 163.474 29.044C163.478 28.9905 163.464 28.9463 163.402 28.9473C163.31 28.9494 163.356 29.0255 163.369 29.078C163.379 29.1202 163.373 29.2303 163.303 29.2159C163.247 29.2046 163.241 29.08 163.167 29.0646C163.096 29.0492 163.105 29.0975 163.084 29.1366C163.079 29.1459 163.047 29.1963 163.047 29.2087C163.055 29.29 163.166 29.2786 163.212 29.3198C163.266 29.3692 163.273 29.4062 163.354 29.4248C163.436 29.4433 163.418 29.4124 163.481 29.3723C163.537 29.3373 163.597 29.3702 163.646 29.3301C163.691 29.292 163.685 29.2354 163.682 29.1799C163.762 29.2066 163.795 29.0801 163.894 29.1233C163.964 29.1531 163.97 29.2107 163.986 29.2756C164.002 29.3383 164.023 29.4052 164.039 29.469C164.057 29.5472 164.127 29.6655 164.089 29.7438C164.037 29.717 164.044 29.6069 163.983 29.5925C163.938 29.5812 163.916 29.6378 163.928 29.681C163.936 29.7149 163.975 29.7499 163.988 29.789C164.005 29.8364 164.007 29.858 164.041 29.8991C164.148 30.0339 164.199 30.2078 164.255 30.3725C164.312 30.5392 164.38 30.7018 164.439 30.8674C164.463 30.9343 164.478 31.0064 164.512 31.0681C164.535 31.1103 164.568 31.1401 164.596 31.1772C164.613 31.2008 164.652 31.2142 164.627 31.2276C164.609 31.3377 164.71 31.3099 164.789 31.3408C164.803 31.4324 164.767 31.5332 164.714 31.6052C164.859 31.5168 164.848 31.631 164.847 31.7359C164.847 31.8728 164.88 31.8913 164.972 31.9448C165.04 31.9829 165.084 32.0415 165.148 32.093C165.203 32.1362 165.256 32.1619 165.3 32.2154C165.361 32.2875 165.377 32.3863 165.428 32.4655C165.558 32.662 165.67 32.8699 165.758 33.0932C165.839 33.299 165.805 33.5233 165.889 33.7302C165.955 33.8896 166.058 34.0543 166.076 34.2282C166.1 34.4474 166.065 34.6851 166.042 34.9032C166.031 35.0226 166.057 35.1255 166.066 35.2438L166.067 35.2428Z" fill="#9A6251"/>
</svg>
